HIERARCHY
ROOT joint_Root
{
	OFFSET 0.0 0.0 0.0
	CHANNELS 6 Xposition Yposition Zposition Zrotation Xrotation Yrotation 
	JOINT Hips
	{
		OFFSET -17.1583 93.1646 452.98
		CHANNELS 6 Xposition Yposition Zposition Zrotation Xrotation Yrotation 
		JOINT Spine
		{
			OFFSET 15.7357 0.0 0.0
			CHANNELS 6 Xposition Yposition Zposition Zrotation Xrotation Yrotation 
			JOINT Chest
			{
				OFFSET 8.98455 -0.406207 0.0
				CHANNELS 6 Xposition Yposition Zposition Zrotation Xrotation Yrotation 
				JOINT Neck
				{
					OFFSET 16.3773 0.0 0.0
					CHANNELS 6 Xposition Yposition Zposition Zrotation Xrotation Yrotation 
					JOINT Head
					{
						OFFSET 6.45672 0.0 0.0
						CHANNELS 6 Xposition Yposition Zposition Zrotation Xrotation Yrotation 
						End Site
						{
							OFFSET 0.0 0.0 0.0
						}
					}
				}
				JOINT Shoulder_L
				{
					OFFSET 12.9942 -0.242716 4.98039
					CHANNELS 6 Xposition Yposition Zposition Zrotation Xrotation Yrotation 
					JOINT UpperArm_L
					{
						OFFSET 5.34809 0.0 0.0
						CHANNELS 6 Xposition Yposition Zposition Zrotation Xrotation Yrotation 
						JOINT LowerArm_L
						{
							OFFSET 24.3286 1.87007e-05 0.0
							CHANNELS 6 Xposition Yposition Zposition Zrotation Xrotation Yrotation 
							JOINT Hand_L
							{
								OFFSET 22.2916 0.0 0.0
								CHANNELS 6 Xposition Yposition Zposition Zrotation Xrotation Yrotation 
								End Site
								{
									OFFSET 0.0 0.0 0.0
								}
							}
						}
					}
				}
				JOINT Shoulder_R
				{
					OFFSET 12.9945 -0.242716 -4.98039
					CHANNELS 6 Xposition Yposition Zposition Zrotation Xrotation Yrotation 
					JOINT UpperArm_R
					{
						OFFSET -5.34813 0.0 0.0
						CHANNELS 6 Xposition Yposition Zposition Zrotation Xrotation Yrotation 
						JOINT LowerArm_R
						{
							OFFSET -24.3289 0.000322201 0.0
							CHANNELS 6 Xposition Yposition Zposition Zrotation Xrotation Yrotation 
							JOINT Hand_R
							{
								OFFSET -22.2915 -0.000108084 0.0
								CHANNELS 6 Xposition Yposition Zposition Zrotation Xrotation Yrotation 
								End Site
								{
									OFFSET 0.0 0.0 0.0
								}
							}
						}
					}
				}
			}
		}
		JOINT UpperLeg_L
		{
			OFFSET -2.19248 -6.46944 0.0
			CHANNELS 6 Xposition Yposition Zposition Zrotation Xrotation Yrotation 
			JOINT LowerLeg_L
			{
				OFFSET 39.0811 0.0 -1.23785e-05
				CHANNELS 6 Xposition Yposition Zposition Zrotation Xrotation Yrotation 
				JOINT Foot_L
				{
					OFFSET 40.9854 0.0 -1.26872e-05
					CHANNELS 6 Xposition Yposition Zposition Zrotation Xrotation Yrotation 
					JOINT Toes_L
					{
						OFFSET 11.7543 0.0 0.0
						CHANNELS 6 Xposition Yposition Zposition Zrotation Xrotation Yrotation 
						End Site
						{
							OFFSET 0.0 0.0 0.0
						}
					}
				}
			}
		}
		JOINT UpperLeg_R
		{
			OFFSET -2.19251 6.46944 0.0
			CHANNELS 6 Xposition Yposition Zposition Zrotation Xrotation Yrotation 
			JOINT LowerLeg_R
			{
				OFFSET -39.0811 -0.00228153 -0.0401928
				CHANNELS 6 Xposition Yposition Zposition Zrotation Xrotation Yrotation 
				JOINT Foot_R
				{
					OFFSET -40.9854 0.0 0.0
					CHANNELS 6 Xposition Yposition Zposition Zrotation Xrotation Yrotation 
					JOINT Toes_R
					{
						OFFSET -11.7543 0.0 0.0
						CHANNELS 6 Xposition Yposition Zposition Zrotation Xrotation Yrotation 
						End Site
						{
							OFFSET 0.0 0.0 0.0
						}
					}
				}
			}
		}
	}
}
MOTION
Frames:	6
Frame Time:	0.0333333
0.000000 0.000000 0.000000 0.000000 0.000000 -0.000000 0.007778 92.891900 0.359725 87.686800 0.190054 1.634340 15.735700 0.000005 -0.000001 70.578700 87.357500 -69.043100 8.984550 -0.406207 -0.000000 -2.755170 -1.897580 3.026040 16.377300 -0.000001 -0.000001 5.768470 0.886537 -2.948420 6.456720 -0.000001 -0.000000 3.227420 -0.470411 -0.804645 12.994200 -0.242716 4.980390 -92.561100 7.504890 -71.095800 5.348090 -0.000007 -0.000001 -73.520400 11.951300 1.612250 24.328600 0.000019 0.000005 13.612400 26.987800 -28.084800 22.291600 -0.000001 0.000005 -0.825751 4.971150 7.927030 12.994500 -0.242716 -4.980390 88.483200 4.859250 -72.640700 -5.348130 -0.000001 -0.000004 -70.812200 30.252600 -3.976800 -24.328900 0.000322 -0.000009 2.213620 7.407050 -16.698100 -22.291500 -0.000108 -0.000004 1.561500 5.222060 2.160010 -2.192480 -6.469440 -0.000000 -177.392000 0.967998 -0.842539 39.081100 -0.000007 -0.000012 0.177741 -0.531714 18.484000 40.985400 -0.000006 -0.000013 3.217670 10.283100 -71.789500 11.754300 -0.000000 0.000003 -0.000658 0.178056 -9.354310 -2.192510 6.469440 -0.000001 -176.354000 5.489050 -177.268000 -39.081100 -0.002282 -0.040193 0.031879 -0.126905 12.676500 -40.985400 0.000008 0.000006 -0.995559 1.640620 -69.173900 -11.754300 -0.000006 -0.000006 -0.010422 0.274436 -5.422920
0.000000 0.000000 0.000000 0.000000 0.000000 -0.000000 -0.061408 92.897800 0.353656 87.667000 0.208951 1.495140 15.735700 0.000005 -0.000001 69.981800 87.354800 -68.416000 8.984550 -0.406207 -0.000000 -2.767270 -1.954200 3.084740 16.377300 -0.000001 -0.000001 5.575480 0.862024 -3.034660 6.456720 -0.000001 -0.000000 3.106350 -0.507781 -0.918824 12.994200 -0.242716 4.980390 -92.562000 7.508650 -71.098500 5.348090 -0.000007 -0.000001 -73.121500 11.144500 1.354650 24.328600 0.000019 0.000005 13.967800 27.052800 -28.673500 22.291600 -0.000001 0.000005 -0.549172 4.965890 8.036510 12.994500 -0.242716 -4.980390 88.471900 4.895620 -72.641600 -5.348130 -0.000001 -0.000004 -70.711900 30.219900 -4.033820 -24.328900 0.000322 -0.000009 2.176360 7.236780 -16.795300 -22.291500 -0.000108 -0.000004 1.656430 5.221840 2.165610 -2.192480 -6.469440 -0.000000 -177.311000 0.975423 -0.987982 39.081100 -0.000007 -0.000012 0.175836 -0.526726 18.460800 40.985400 -0.000006 -0.000013 3.170460 10.335300 -71.737500 11.754300 -0.000000 0.000003 -0.000542 0.176296 -9.425830 -2.192510 6.469440 -0.000001 -176.276000 5.453940 -177.368000 -39.081100 -0.002282 -0.040193 0.030749 -0.122960 12.568600 -40.985400 0.000008 0.000006 -0.951627 1.618850 -69.097700 -11.754300 -0.000006 -0.000006 -0.010500 0.275003 -5.399700
0.000000 0.000000 0.000000 0.000000 0.000000 -0.000000 -0.139312 92.913400 0.334069 87.669800 0.212261 1.325970 15.735700 0.000005 -0.000001 69.701000 87.376500 -68.110100 8.984550 -0.406207 -0.000000 -2.816310 -1.966450 3.134030 16.377300 -0.000001 -0.000001 5.418480 0.836172 -3.098480 6.456720 -0.000001 -0.000000 2.934910 -0.592701 -1.123130 12.994200 -0.242716 4.980390 -92.576100 7.547000 -71.090500 5.348090 -0.000007 -0.000001 -72.634200 10.176300 1.275970 24.328600 0.000019 0.000005 14.889000 27.221800 -30.166100 22.291600 -0.000001 0.000005 -0.319641 4.952940 8.304250 12.994500 -0.242716 -4.980390 88.471000 4.887830 -72.605900 -5.348130 -0.000001 -0.000004 -70.684600 30.104300 -4.067910 -24.328900 0.000322 -0.000009 2.173750 7.216890 -16.819700 -22.291500 -0.000108 -0.000004 1.670260 5.223920 2.112400 -2.192480 -6.469440 -0.000000 -177.252000 0.957942 -1.116420 39.081100 -0.000007 -0.000012 0.176422 -0.531562 18.361000 40.985400 -0.000006 -0.000013 3.105930 10.372000 -71.762100 11.754300 -0.000000 0.000003 -0.000652 0.177957 -9.358350 -2.192510 6.469440 -0.000001 -176.219000 5.393970 -177.504000 -39.081100 -0.002282 -0.040193 0.028767 -0.115048 12.465400 -40.985400 0.000008 0.000006 -1.135610 1.601850 -69.004700 -11.754300 -0.000006 -0.000006 -0.010443 0.274582 -5.416920
0.000000 0.000000 0.000000 0.000000 0.000000 -0.000000 -0.229493 92.918500 0.318994 87.681600 0.246092 1.233550 15.735700 0.000005 -0.000001 69.510800 87.371700 -67.907000 8.984550 -0.406207 -0.000000 -2.812890 -1.987260 3.159230 16.377300 -0.000001 -0.000001 5.197280 0.795149 -3.171300 6.456720 -0.000001 -0.000000 2.759540 -0.657749 -1.356450 12.994200 -0.242716 4.980390 -92.598400 7.581190 -71.017800 5.348090 -0.000007 -0.000001 -72.112600 8.842870 1.349000 24.328600 0.000019 0.000005 16.012700 26.819900 -32.459300 22.291600 -0.000001 0.000005 0.029811 4.941070 8.548260 12.994500 -0.242716 -4.980390 88.470400 4.886690 -72.595200 -5.348130 -0.000001 -0.000004 -70.669100 30.007200 -4.072500 -24.328900 0.000322 -0.000009 2.197550 7.288950 -16.835700 -22.291500 -0.000108 -0.000004 1.592180 5.223900 2.112640 -2.192480 -6.469440 -0.000000 -177.195000 0.935572 -1.209930 39.081100 -0.000007 -0.000012 0.175819 -0.530708 18.329900 40.985400 -0.000006 -0.000013 3.035820 10.391600 -71.759000 11.754300 -0.000000 0.000003 -0.000757 0.179520 -9.294840 -2.192510 6.469440 -0.000001 -176.148000 5.355530 -177.575000 -39.081100 -0.002282 -0.040193 0.028585 -0.114897 12.394500 -40.985400 0.000008 0.000006 -1.063050 1.520060 -68.973600 -11.754300 -0.000006 -0.000006 -0.010479 0.274854 -5.405800
0.000000 0.000000 0.000000 0.000000 0.000000 -0.000000 -0.334964 92.929600 0.308030 87.673800 0.250549 1.114450 15.735700 0.000005 -0.000001 69.890100 87.388800 -68.274600 8.984550 -0.406207 -0.000000 -2.833300 -1.944230 3.183500 16.377300 -0.000001 -0.000001 5.017860 0.721158 -3.282040 6.456720 -0.000001 -0.000000 2.483350 -0.848392 -1.647920 12.994200 -0.242716 4.980390 -92.632400 7.635700 -70.914000 5.348090 -0.000007 -0.000001 -71.532800 7.320820 1.472290 24.328600 0.000019 0.000005 16.895600 25.480400 -35.224100 22.291600 -0.000001 0.000005 0.505117 4.929190 8.790080 12.994500 -0.242716 -4.980390 88.457700 4.934340 -72.618100 -5.348130 -0.000001 -0.000004 -70.645800 29.960300 -3.974380 -24.328900 0.000322 -0.000009 2.183040 7.213030 -16.895900 -22.291500 -0.000108 -0.000004 1.610230 5.223720 2.117380 -2.192480 -6.469440 -0.000000 -177.116000 0.971149 -1.297550 39.081100 -0.000007 -0.000012 0.176395 -0.534709 18.257500 40.985400 -0.000006 -0.000013 2.952010 10.387400 -71.772200 11.754300 -0.000000 0.000003 -0.000663 0.178118 -9.351820 -2.192510 6.469440 -0.000001 -176.078000 5.383350 -177.647000 -39.081100 -0.002282 -0.040193 0.026546 -0.106708 12.272000 -40.985400 0.000008 0.000006 -1.127420 1.570420 -68.875400 -11.754300 -0.000006 -0.000006 -0.010503 0.275024 -5.398840
0.000000 0.000000 0.000000 0.000000 0.000000 -0.000000 -0.463644 92.933600 0.284698 87.668100 0.384792 0.978202 15.735700 0.000005 -0.000001 69.876400 87.402600 -68.250600 8.984550 -0.406207 -0.000000 -2.859610 -1.937200 3.203800 16.377300 -0.000001 -0.000001 4.788150 0.611730 -3.465060 6.456720 -0.000001 -0.000000 2.160440 -1.156540 -2.042270 12.994200 -0.242716 4.980390 -92.648100 7.645180 -70.830000 5.348090 -0.000007 -0.000001 -70.993700 5.769750 1.617710 24.328600 0.000019 0.000005 17.647200 23.582800 -38.491000 22.291600 -0.000001 0.000005 0.907932 4.915290 9.071490 12.994500 -0.242716 -4.980390 88.441900 4.968740 -72.564900 -5.348130 -0.000001 -0.000004 -70.623300 29.895200 -3.933400 -24.328900 0.000322 -0.000009 2.219940 7.348050 -16.869300 -22.291500 -0.000108 -0.000004 1.561960 5.225510 2.071420 -2.192480 -6.469440 -0.000000 -177.003000 1.062530 -1.473650 39.081100 -0.000007 -0.000012 0.174896 -0.530162 18.257600 40.985400 -0.000006 -0.000013 2.860350 10.465100 -71.735900 11.754300 -0.000000 0.000003 -0.000643 0.177823 -9.363790 -2.192510 6.469440 -0.000001 -175.950000 5.370730 -177.754000 -39.081100 -0.002282 -0.040193 0.025850 -0.104367 12.173700 -40.985400 0.000008 0.000006 -1.093710 1.409400 -68.824000 -11.754300 -0.000006 -0.000006 -0.010527 0.275201 -5.391590
